<svg width="23" height="23" viewBox="0 0 23 23" fill="none" xmlns="http://www.w3.org/2000/svg">
<path d="M22 22L15 15M1 9.16667C1 10.2391 1.21124 11.3011 1.62165 12.2919C2.03206 13.2827 2.63362 14.183 3.39196 14.9414C4.15031 15.6997 5.05059 16.3013 6.04142 16.7117C7.03224 17.1221 8.0942 17.3333 9.16667 17.3333C10.2391 17.3333 11.3011 17.1221 12.2919 16.7117C13.2827 16.3013 14.183 15.6997 14.9414 14.9414C15.6997 14.183 16.3013 13.2827 16.7117 12.2919C17.1221 11.3011 17.3333 10.2391 17.3333 9.16667C17.3333 8.0942 17.1221 7.03224 16.7117 6.04142C16.3013 5.05059 15.6997 4.15031 14.9414 3.39196C14.183 2.63362 13.2827 2.03206 12.2919 1.62165C11.3011 1.21124 10.2391 1 9.16667 1C8.0942 1 7.03224 1.21124 6.04142 1.62165C5.05059 2.03206 4.15031 2.63362 3.39196 3.39196C2.63362 4.15031 2.03206 5.05059 1.62165 6.04142C1.21124 7.03224 1 8.0942 1 9.16667Z" stroke="white" stroke-width="2" stroke-linecap="round" stroke-linejoin="round"/>
</svg>
