<svg width="8" height="14" viewBox="0 0 8 14" fill="none" xmlns="http://www.w3.org/2000/svg">
<path d="M6.41475 13.723L0.202776 7.51715C0.129044 7.44327 0.0766934 7.36324 0.0457257 7.27705C0.014758 7.19085 -0.00048003 7.09851 1.15207e-05 7C1.15207e-05 6.9015 0.0154954 6.80915 0.0464631 6.72296C0.0774308 6.63676 0.129535 6.55673 0.202776 6.48285L6.41475 0.258575C6.58679 0.0861917 6.80185 0 7.05991 0C7.31797 0 7.53917 0.0923483 7.7235 0.277045C7.90783 0.461741 8 0.677221 8 0.923483C8 1.16974 7.90783 1.38522 7.7235 1.56992L2.30416 7L7.7235 12.4301C7.89555 12.6025 7.98157 12.815 7.98157 13.0677C7.98157 13.3203 7.8894 13.5388 7.70507 13.723C7.52074 13.9077 7.30569 14 7.05991 14C6.81413 14 6.59908 13.9077 6.41475 13.723Z" fill="white"/>
</svg>
